<?xml version="1.0" encoding="UTF-8" standalone="no"?>
<!-- Generator: Adobe Illustrator 19.0.0, SVG Export Plug-In . SVG Version: 6.00 Build 0)  -->

<svg
   xmlns:dc="http://purl.org/dc/elements/1.1/"
   xmlns:cc="http://creativecommons.org/ns#"
   xmlns:rdf="http://www.w3.org/1999/02/22-rdf-syntax-ns#"
   xmlns:svg="http://www.w3.org/2000/svg"
   xmlns="http://www.w3.org/2000/svg"
   xmlns:sodipodi="http://sodipodi.sourceforge.net/DTD/sodipodi-0.dtd"
   xmlns:inkscape="http://www.inkscape.org/namespaces/inkscape"
   version="1.1"
   id="Layer_1"
   x="0px"
   y="0px"
   viewBox="0 0 481.882 481.882"
   style="enable-background:new 0 0 481.882 481.882;"
   xml:space="preserve"
   sodipodi:docname="floppy-disk-save-svgrepo-com.svg"
   inkscape:version="0.92.4 (5da689c313, 2019-01-14)"><metadata
   id="metadata55"><rdf:RDF><cc:Work
       rdf:about=""><dc:format>image/svg+xml</dc:format><dc:type
         rdf:resource="http://purl.org/dc/dcmitype/StillImage" /><dc:title></dc:title></cc:Work></rdf:RDF></metadata><defs
   id="defs53" /><sodipodi:namedview
   pagecolor="#ffffff"
   bordercolor="#666666"
   borderopacity="1"
   objecttolerance="10"
   gridtolerance="10"
   guidetolerance="10"
   inkscape:pageopacity="0"
   inkscape:pageshadow="2"
   inkscape:window-width="1739"
   inkscape:window-height="908"
   id="namedview51"
   showgrid="false"
   inkscape:zoom="0.48974646"
   inkscape:cx="-6.1256185"
   inkscape:cy="240.94099"
   inkscape:window-x="0"
   inkscape:window-y="0"
   inkscape:window-maximized="0"
   inkscape:current-layer="Layer_1" />
<g
   id="g6"
   transform="matrix(0.92388677,0,0,0.92388677,18.338799,18.338799)">
	<g
   id="g4">
		<path
   d="M 96.397,279.562 V 481.883 H 385.485 V 279.562 Z M 361.228,442.418 H 120.647 V 427.36 h 240.581 z m 0,-41.128 H 120.647 v -15.059 h 240.581 z m 0,-41.129 H 120.647 v -15.059 h 240.581 z m 0,-41.135 H 120.647 v -15.059 h 240.581 z"
   id="path2"
   inkscape:connector-curvature="0" />
	</g>
</g>
<g
   id="g12"
   transform="matrix(0.92388677,0,0,0.92388677,18.338799,18.338799)">
	<g
   id="g10">
		<path
   d="m 114.941,0 v 147.117 c 0,4.232 3.441,7.673 7.669,7.673 h 236.654 c 4.235,0 7.677,-3.442 7.677,-7.673 V 0 Z M 336.163,126.856 H 298.12 V 42.992 h 38.044 v 83.864 z"
   id="path8"
   inkscape:connector-curvature="0" />
	</g>
</g>
<g
   id="g18"
   style="fill:#000000;fill-opacity:1;stroke:#000000;stroke-opacity:1"
   transform="matrix(0.92388677,0,0,0.92388677,18.338799,18.338799)">
	<g
   id="g16"
   style="fill:#000000;fill-opacity:1;stroke:#000000;stroke-opacity:1">
		<path
   d="M 473.941,72.867 409.014,7.93 C 403.97,2.889 396.985,0 389.86,0 H 382 v 147.117 c 0,12.533 -10.198,22.732 -22.736,22.732 H 122.61 c -12.53,0 -22.728,-10.199 -22.728,-22.732 V 0 H 27.088 C 12.154,0 0,12.154 0,27.092 V 454.79 c 0,14.938 12.154,27.092 27.088,27.092 h 54.25 v -209.85 c 0,-4.158 3.368,-7.529 7.529,-7.529 h 304.147 c 4.162,0 7.529,3.372 7.529,7.529 v 209.85 h 54.243 c 14.941,0 27.096,-12.155 27.096,-27.092 V 92.021 c 0,-7.131 -2.897,-14.11 -7.941,-19.154 z"
   id="path14"
   inkscape:connector-curvature="0"
   style="fill:#000000;fill-opacity:1;stroke:#000000;stroke-opacity:1" />
	</g>
</g>
<g
   id="g20">
</g>
<g
   id="g22">
</g>
<g
   id="g24">
</g>
<g
   id="g26">
</g>
<g
   id="g28">
</g>
<g
   id="g30">
</g>
<g
   id="g32">
</g>
<g
   id="g34">
</g>
<g
   id="g36">
</g>
<g
   id="g38">
</g>
<g
   id="g40">
</g>
<g
   id="g42">
</g>
<g
   id="g44">
</g>
<g
   id="g46">
</g>
<g
   id="g48">
</g>
</svg>