<?xml version="1.0" encoding="UTF-8" standalone="no"?>
<svg
   xmlns:dc="http://purl.org/dc/elements/1.1/"
   xmlns:cc="http://creativecommons.org/ns#"
   xmlns:rdf="http://www.w3.org/1999/02/22-rdf-syntax-ns#"
   xmlns:svg="http://www.w3.org/2000/svg"
   xmlns="http://www.w3.org/2000/svg"
   xmlns:sodipodi="http://sodipodi.sourceforge.net/DTD/sodipodi-0.dtd"
   xmlns:inkscape="http://www.inkscape.org/namespaces/inkscape"
   fill="#000000"
   height="24"
   viewBox="0 0 24 24"
   width="24"
   version="1.1"
   id="svg6"
   sodipodi:docname="ic_order_date_white_24px.svg"
   inkscape:version="0.92.4 (5da689c313, 2019-01-14)">
  <metadata
     id="metadata12">
    <rdf:RDF>
      <cc:Work
         rdf:about="">
        <dc:format>image/svg+xml</dc:format>
        <dc:type
           rdf:resource="http://purl.org/dc/dcmitype/StillImage" />
        <dc:title></dc:title>
      </cc:Work>
    </rdf:RDF>
  </metadata>
  <defs
     id="defs10" />
  <sodipodi:namedview
     pagecolor="#ffffff"
     bordercolor="#666666"
     borderopacity="1"
     objecttolerance="10"
     gridtolerance="10"
     guidetolerance="10"
     inkscape:pageopacity="0"
     inkscape:pageshadow="2"
     inkscape:window-width="1920"
     inkscape:window-height="1011"
     id="namedview8"
     showgrid="true"
     inkscape:zoom="22.627417"
     inkscape:cx="1.220467"
     inkscape:cy="11.219548"
     inkscape:window-x="-6"
     inkscape:window-y="-9"
     inkscape:window-maximized="1"
     inkscape:current-layer="svg6">
    <inkscape:grid
       type="xygrid"
       id="grid3790" />
  </sodipodi:namedview>
  <path
     d="M0 0h24v24H0z"
     id="path2"
     fill="none" />
  <path
     id="rect3030-1"
     style="fill:#fcfcfc;fill-opacity:1;stroke-width:0.05491975"
     d="M 6.9719802,17 C 6.4607367,16.999437 5.94982,17.014089 5.94982,17.046364 v 0.894383 c 0,0.09184 0.091723,0.161524 0.2127065,0.161524 H 7.781446 c 0.1208862,0 0.2127065,-0.06959 0.2127065,-0.161524 v -0.894383 c 0,-0.03111 -0.5109046,-0.04607 -1.0221723,-0.04636 z M 9.48501,17 c -0.5112434,-5.63e-4 -1.0221602,0.01409 -1.0221602,0.04636 v 0.894382 c 0,0.09184 0.093781,0.161524 0.2146668,0.161524 h 1.6169104 c 0.120887,0 0.214667,-0.06959 0.214667,-0.161524 v -0.894383 c 0,-0.03111 -0.5128768,-0.04607 -1.0241082,-0.04636 z M 12,17 c -0.511243,-5.63e-4 -1.022172,0.01409 -1.022172,0.04636 v 0.894382 c 0,0.09184 0.09172,0.161524 0.212706,0.161524 h 1.61892 c 0.120886,0 0.212706,-0.06959 0.212706,-0.161524 v -0.894383 c 0,-0.03111 -0.510916,-0.04607 -1.02216,-0.04636 z m 2.514978,0 c -0.511243,-5.63e-4 -1.02412,0.01409 -1.02412,0.04636 v 0.894382 c 0,0.09184 0.09378,0.161524 0.214679,0.161524 h 1.616898 c 0.121007,0 0.214667,-0.06959 0.214667,-0.161524 v -0.894383 c 0,-0.03111 -0.510905,-0.04607 -1.02216,-0.04636 z m 2.51303,0 c -0.511243,-5.63e-4 -1.022172,0.01409 -1.022172,0.04636 v 0.894382 c 0,0.09184 0.09172,0.161524 0.212706,0.161524 h 1.61892 c 0.120886,0 0.212706,-0.06959 0.212706,-0.161524 v -0.894383 c 0,-0.03111 -0.510904,-0.04607 -1.02216,-0.04636 z M 6.9439722,15 C 6.4327287,14.999437 5.921812,15.01409 5.921812,15.04636 v 0.894383 c 0,0.09184 0.091723,0.161524 0.2127065,0.161524 H 7.753438 c 0.1208862,0 0.2127065,-0.06959 0.2127065,-0.161524 V 15.04636 c 0,-0.03111 -0.5109046,-0.04607 -1.0221723,-0.04636 z m 2.5130298,0 c -0.5112434,-5.63e-4 -1.0221602,0.01409 -1.0221602,0.04636 v 0.894382 c 0,0.09184 0.093781,0.161524 0.2146668,0.161524 h 1.6169104 c 0.120887,0 0.214667,-0.06959 0.214667,-0.161524 v -0.894383 c 0,-0.03111 -0.5128768,-0.04607 -1.0241082,-0.04636 z m 2.51499,0 c -0.511243,-5.63e-4 -1.022172,0.01409 -1.022172,0.04636 v 0.894382 c 0,0.09184 0.09172,0.161524 0.212706,0.161524 h 1.61892 c 0.120886,0 0.212706,-0.06959 0.212706,-0.161524 v -0.894383 c 0,-0.03111 -0.510916,-0.04607 -1.02216,-0.04636 z m 2.514978,0 c -0.511243,-5.63e-4 -1.02412,0.01409 -1.02412,0.04636 v 0.894382 c 0,0.09184 0.09378,0.161524 0.214679,0.161524 h 1.616898 c 0.121007,0 0.214667,-0.06959 0.214667,-0.161524 v -0.894383 c 0,-0.03111 -0.510905,-0.04607 -1.02216,-0.04636 z M 17,15 c -0.511243,-5.63e-4 -1.022172,0.01409 -1.022172,0.04636 v 0.894382 c 0,0.09184 0.09172,0.161524 0.212706,0.161524 h 1.61892 c 0.120886,0 0.212706,-0.06959 0.212706,-0.161524 V 15.046359 C 18.02216,15.015249 17.511256,15.000289 17,15 Z M 7,12.999996 c -0.5112435,-5.63e-4 -1.0221602,0.01409 -1.0221602,0.04636 v 0.894383 c 0,0.09184 0.091723,0.161524 0.2127065,0.161524 h 1.6189195 c 0.1208862,0 0.2127065,-0.06959 0.2127065,-0.161524 V 13.04636 C 8.0221723,13.01525 7.5112677,13.00029 7,13 Z m 2.5130298,0 c -0.5112434,-5.63e-4 -1.0221602,0.01409 -1.0221602,0.04636 v 0.894382 c 0,0.09184 0.093781,0.161524 0.2146668,0.161524 h 1.6169106 c 0.120887,0 0.214667,-0.06959 0.214667,-0.161524 v -0.894383 c 0,-0.03111 -0.512877,-0.04607 -1.0241084,-0.04636 z m 2.5149902,0 c -0.511243,-5.63e-4 -1.022172,0.01409 -1.022172,0.04636 v 0.894382 c 0,0.09184 0.09172,0.161524 0.212706,0.161524 h 1.61892 c 0.120886,0 0.212706,-0.06959 0.212706,-0.161524 v -0.894383 c 0,-0.03111 -0.510916,-0.04607 -1.02216,-0.04636 z m 2.514978,0 c -0.511243,-5.63e-4 -1.02412,0.01409 -1.02412,0.04636 v 0.894382 c 0,0.09184 0.09378,0.161524 0.214679,0.161524 h 1.616898 c 0.121007,0 0.214667,-0.06959 0.214667,-0.161524 v -0.894383 c 0,-0.03111 -0.510905,-0.04607 -1.02216,-0.04636 z m 2.51303,0 c -0.511243,-5.63e-4 -1.022172,0.01409 -1.022172,0.04636 v 0.894382 c 0,0.09184 0.09172,0.161524 0.212706,0.161524 h 1.61892 c 0.120886,0 0.212706,-0.06959 0.212706,-0.161524 v -0.894383 c 0,-0.03111 -0.510904,-0.04607 -1.02216,-0.04636 z M 6.9719802,8.9999909 C 6.4607367,8.9994287 5.94982,9.0140808 5.94982,9.0463557 v 0.8943825 c 0,0.091842 0.091723,0.1615238 0.2127065,0.1615238 H 7.781446 c 0.1208862,0 0.2127065,-0.06959 0.2127065,-0.1615238 V 9.0463557 c 0,-0.031108 -0.5109046,-0.046069 -1.0221723,-0.046365 z m 2.5130298,0 c -0.5112434,-5.622e-4 -1.0221602,0.01409 -1.0221602,0.046365 v 0.8943825 c 0,0.091842 0.093781,0.1615236 0.2146668,0.1615236 h 1.6169104 c 0.120887,0 0.214667,-0.06959 0.214667,-0.1615236 V 9.0463557 c 0,-0.031108 -0.5128768,-0.046069 -1.0241082,-0.046365 z m 2.51499,0 c -0.511243,-5.622e-4 -1.022172,0.01409 -1.022172,0.046365 v 0.8943823 c 0,0.091842 0.09172,0.1615238 0.212706,0.1615238 h 1.61892 c 0.120886,0 0.212706,-0.06959 0.212706,-0.1615238 V 9.0463557 c 0,-0.031108 -0.510916,-0.046069 -1.02216,-0.046365 z m 2.514978,0 c -0.511243,-5.622e-4 -1.02412,0.01409 -1.02412,0.046365 v 0.8943823 c 0,0.091842 0.09378,0.1615238 0.214679,0.1615238 h 1.616898 c 0.121007,0 0.214667,-0.06959 0.214667,-0.1615238 V 9.0463557 c 0,-0.031108 -0.510905,-0.046069 -1.02216,-0.046365 z m 2.51303,0 c -0.511243,-5.622e-4 -1.022172,0.01409 -1.022172,0.046365 v 0.8943823 c 0,0.091842 0.09172,0.1615238 0.212706,0.1615238 h 1.61892 c 0.120886,0 0.212706,-0.06959 0.212706,-0.1615238 V 9.0463557 c 0,-0.031108 -0.510904,-0.046069 -1.02216,-0.046365 z M 6.9719923,11 C 6.4607488,10.999445 5.94982,11.01539 5.94982,11.04729 v 0.882147 c 0,0.09074 0.091723,0.161064 0.2127065,0.161064 h 1.6189316 c 0.1208862,0 0.2126944,-0.07023 0.2126944,-0.161064 V 11.04729 C 7.9941525,11.01655 7.4832479,11.0003 6.9719923,11 Z m 2.5130298,0 c -0.5112555,-5.55e-4 -1.0221723,0.01539 -1.0221723,0.04729 v 0.882147 c 0,0.09074 0.093781,0.161064 0.2146669,0.161064 h 1.6169103 c 0.121008,0 0.214679,-0.07023 0.214679,-0.161064 V 11.04729 C 10.509106,11.01655 9.9962293,11.0003 9.4849858,11 Z M 12,11 c -0.511243,-5.55e-4 -1.02216,0.01539 -1.02216,0.04729 v 0.882147 c 0,0.09074 0.09172,0.161064 0.212694,0.161064 h 1.618932 c 0.120886,0 0.212694,-0.07023 0.212694,-0.161064 V 11.04729 C 13.02216,11.01655 12.511256,11.0003 12,11 Z m 2.514978,0 c -0.511243,-5.55e-4 -1.02412,0.01539 -1.02412,0.04729 v 0.882147 c 0,0.09074 0.09378,0.161064 0.214679,0.161064 h 1.61691 c 0.120887,0 0.214667,-0.07023 0.214667,-0.161064 V 11.04729 c 0,-0.03074 -0.510904,-0.04699 -1.02216,-0.04729 z m 2.51303,0 c -0.511243,-5.55e-4 -1.02216,0.01539 -1.02216,0.04729 v 0.882147 c 0,0.09074 0.09172,0.161064 0.212694,0.161064 h 1.618932 c 0.120886,0 0.212694,-0.07023 0.212694,-0.161064 V 11.04729 c 0,-0.03074 -0.510904,-0.04699 -1.02216,-0.04729 z M 6,1 V 3 H 5 C 3.89,3 3.0097656,3.9 3.0097656,5 L 3,19 c 0,1.1 0.89,2 2,2 h 14 c 1.1,0 2,-0.9 2,-2 V 5 C 21,3.9 20.1,3 19,3 H 18 V 1 H 16 V 3 H 8 V 1 Z M 5,8 H 19 V 19 H 5 Z" />
</svg>
