<?xml version="1.0" encoding="UTF-8" standalone="no"?>
<svg
   xmlns:dc="http://purl.org/dc/elements/1.1/"
   xmlns:cc="http://creativecommons.org/ns#"
   xmlns:rdf="http://www.w3.org/1999/02/22-rdf-syntax-ns#"
   xmlns:svg="http://www.w3.org/2000/svg"
   xmlns="http://www.w3.org/2000/svg"
   xmlns:sodipodi="http://sodipodi.sourceforge.net/DTD/sodipodi-0.dtd"
   xmlns:inkscape="http://www.inkscape.org/namespaces/inkscape"
   id="svg6"
   version="1.1"
   width="24"
   viewBox="0 0 24 24"
   height="24"
   fill="#000000"
   sodipodi:docname="ic_order_date_desc_black_24px.svg"
   inkscape:version="0.92.2 5c3e80d, 2017-08-06">
  <sodipodi:namedview
     pagecolor="#ffffff"
     bordercolor="#666666"
     borderopacity="1"
     objecttolerance="10"
     gridtolerance="10"
     guidetolerance="10"
     inkscape:pageopacity="0"
     inkscape:pageshadow="2"
     inkscape:window-width="640"
     inkscape:window-height="480"
     id="namedview3799"
     showgrid="false"
     inkscape:zoom="9.8333333"
     inkscape:cx="12"
     inkscape:cy="12"
     inkscape:window-x="0"
     inkscape:window-y="0"
     inkscape:window-maximized="0"
     inkscape:current-layer="svg6" />
  <metadata
     id="metadata12">
    <rdf:RDF>
      <cc:Work
         rdf:about="">
        <dc:format>image/svg+xml</dc:format>
        <dc:type
           rdf:resource="http://purl.org/dc/dcmitype/StillImage" />
        <dc:title />
      </cc:Work>
    </rdf:RDF>
  </metadata>
  <defs
     id="defs10" />
  <path
     fill="none"
     id="path2"
     d="M0 0h24v24H0z" />
  <path
     d="M 6 1 L 6 3 L 5 3 C 3.89 3 3.0097656 3.9 3.0097656 5 L 3 19 C 3 20.1 3.89 21 5 21 L 19 21 C 20.1 21 21 20.1 21 19 L 21 5 C 21 3.9 20.1 3 19 3 L 18 3 L 18 1 L 16 1 L 16 3 L 8 3 L 8 1 L 6 1 z M 5 8 L 19 8 L 19 19 L 5 19 L 5 8 z "
     id="path22" />
  <path
     id="path4-3"
     d="M 17,13 12,18 7.0000002,13 H 10 V 8.9999997 h 4 V 13 Z" />
</svg>
