<?xml version="1.0" encoding="UTF-8" standalone="no"?>
<svg
   xmlns:dc="http://purl.org/dc/elements/1.1/"
   xmlns:cc="http://creativecommons.org/ns#"
   xmlns:rdf="http://www.w3.org/1999/02/22-rdf-syntax-ns#"
   xmlns:svg="http://www.w3.org/2000/svg"
   xmlns="http://www.w3.org/2000/svg"
   xmlns:sodipodi="http://sodipodi.sourceforge.net/DTD/sodipodi-0.dtd"
   xmlns:inkscape="http://www.inkscape.org/namespaces/inkscape"
   id="Layer_1"
   data-name="Layer 1"
   viewBox="0 0 391.08 391.08"
   version="1.1"
   sodipodi:docname="Icon_home_remixofdynamitt.svg"
   inkscape:version="0.92.4 (5da689c313, 2019-01-14)">
  <metadata
     id="metadata17">
    <rdf:RDF>
      <cc:Work
         rdf:about="">
        <dc:format>image/svg+xml</dc:format>
        <dc:type
           rdf:resource="http://purl.org/dc/dcmitype/StillImage" />
      </cc:Work>
    </rdf:RDF>
  </metadata>
  <sodipodi:namedview
     pagecolor="#ffffff"
     bordercolor="#666666"
     borderopacity="1"
     objecttolerance="10"
     gridtolerance="10"
     guidetolerance="10"
     inkscape:pageopacity="0"
     inkscape:pageshadow="2"
     inkscape:window-width="1725"
     inkscape:window-height="1012"
     id="namedview15"
     showgrid="false"
     inkscape:zoom="1"
     inkscape:cx="315.15997"
     inkscape:cy="329.24531"
     inkscape:window-x="0"
     inkscape:window-y="0"
     inkscape:window-maximized="0"
     inkscape:current-layer="Layer_1" />
  <defs
     id="defs4">
    <style
       id="style2">.cls-1{fill:#fff;stroke:#666766;stroke-miterlimit:10;stroke-width:3px;}.cls-2{fill:#6c6d6d;}</style>
  </defs>
  <title
     id="title6">Icon_home_remixofdynamitt</title>
  <rect
     class="cls-1"
     x="1.5"
     y="1.5"
     width="388.07999"
     height="388.07999"
     id="rect8"
     style="display:inline;opacity:0;fill:#ffffff;stroke:#666766;stroke-width:3px;stroke-miterlimit:10" />
  <g
     id="layer1"
     style="fill:#ffffff;fill-opacity:1">
    <path
       id="rect2391"
       class="cls-2"
       d="M 326.67,203.55 200.38,91.71 74,203.6 v 159.87 a 7.44,7.44 0 0 0 7.46,7.45 h 79 v -70.1 a 7.44,7.44 0 0 1 7.45,-7.46 h 64.88 a 7.44,7.44 0 0 1 7.45,7.46 v 70.1 h 79 a 7.42,7.42 0 0 0 7.45,-7.45 V 203.55 Z"
       transform="translate(-4.8,-5.17)"
       style="fill:#ffffff;fill-opacity:1"
       inkscape:connector-curvature="0" />
    <path
       id="path2399"
       class="cls-2"
       d="M 199.65,30.51 20.44,189.19 39.32,210.48 200.38,67.86 l 161,142.62 18.84,-21.29 -179.14,-158.68 -0.7,0.81 z"
       transform="translate(-4.8,-5.17)"
       style="fill:#ffffff;fill-opacity:1"
       inkscape:connector-curvature="0" />
    <path
       id="rect2404"
       class="cls-2"
       d="m 74,53.35 h 45.43 L 119.03,80.26 74,120.94 Z"
       transform="translate(-4.8,-5.17)"
       style="fill:#ffffff;fill-opacity:1"
       inkscape:connector-curvature="0" />
  </g>
</svg>
