<?xml version="1.0" encoding="UTF-8" standalone="no"?>
<!-- Generator: Adobe Illustrator 18.0.0, SVG Export Plug-In . SVG Version: 6.00 Build 0)  -->

<svg
   xmlns:dc="http://purl.org/dc/elements/1.1/"
   xmlns:cc="http://creativecommons.org/ns#"
   xmlns:rdf="http://www.w3.org/1999/02/22-rdf-syntax-ns#"
   xmlns:svg="http://www.w3.org/2000/svg"
   xmlns="http://www.w3.org/2000/svg"
   xmlns:sodipodi="http://sodipodi.sourceforge.net/DTD/sodipodi-0.dtd"
   xmlns:inkscape="http://www.inkscape.org/namespaces/inkscape"
   version="1.1"
   id="Capa_1"
   x="0px"
   y="0px"
   viewBox="0 0 340 340"
   xml:space="preserve"
   sodipodi:docname="next-arrow_grey.svg"
   inkscape:version="0.92.4 (5da689c313, 2019-01-14)"
   width="340"
   height="340"><metadata
   id="metadata43"><rdf:RDF><cc:Work
       rdf:about=""><dc:format>image/svg+xml</dc:format><dc:type
         rdf:resource="http://purl.org/dc/dcmitype/StillImage" /><dc:title></dc:title></cc:Work></rdf:RDF></metadata><defs
   id="defs41" /><sodipodi:namedview
   pagecolor="#ffffff"
   bordercolor="#666666"
   borderopacity="1"
   objecttolerance="10"
   gridtolerance="10"
   guidetolerance="10"
   inkscape:pageopacity="0"
   inkscape:pageshadow="2"
   inkscape:window-width="1766"
   inkscape:window-height="745"
   id="namedview39"
   showgrid="false"
   inkscape:zoom="0.71515152"
   inkscape:cx="-4.1949153"
   inkscape:cy="165"
   inkscape:window-x="0"
   inkscape:window-y="0"
   inkscape:window-maximized="0"
   inkscape:current-layer="Capa_1" />
<g
   id="g6"
   style="opacity:1;fill:#808080;fill-opacity:1"
   transform="translate(5.5932203,4.4067797)">
	<path
   d="M 165,0 C 74.019,0 0,74.02 0,165.001 0,255.981 74.019,330 165,330 255.981,330 330,255.981 330,165.001 330,74.02 255.981,0 165,0 Z m 0,300 C 90.56,300 30,239.439 30,165.001 30,90.562 90.56,30 165,30 239.44,30 300,90.562 300,165.001 300,239.439 239.439,300 165,300 Z"
   id="path2"
   inkscape:connector-curvature="0"
   style="fill:#808080;fill-opacity:1" />
	<path
   d="m 185.606,94.395 c -5.857,-5.857 -15.355,-5.857 -21.213,0 -5.858,5.857 -5.858,15.355 0,21.213 l 34.395,34.395 -103.79,0.006 c -8.284,0 -15,6.717 -14.999,15.001 0,8.284 6.717,14.999 15.001,14.999 l 103.784,-0.006 -34.392,34.393 c -5.858,5.857 -5.858,15.355 0,21.213 2.929,2.929 6.767,4.394 10.606,4.394 3.839,0 7.678,-1.465 10.606,-4.394 l 60,-60.001 C 248.42,172.793 250,168.979 250,165 c 0,-3.979 -1.581,-7.794 -4.394,-10.606 z"
   id="path4"
   inkscape:connector-curvature="0"
   style="fill:#808080;fill-opacity:1" />
</g>
<g
   id="g8"
   transform="translate(0,10)">
</g>
<g
   id="g10"
   transform="translate(0,10)">
</g>
<g
   id="g12"
   transform="translate(0,10)">
</g>
<g
   id="g14"
   transform="translate(0,10)">
</g>
<g
   id="g16"
   transform="translate(0,10)">
</g>
<g
   id="g18"
   transform="translate(0,10)">
</g>
<g
   id="g20"
   transform="translate(0,10)">
</g>
<g
   id="g22"
   transform="translate(0,10)">
</g>
<g
   id="g24"
   transform="translate(0,10)">
</g>
<g
   id="g26"
   transform="translate(0,10)">
</g>
<g
   id="g28"
   transform="translate(0,10)">
</g>
<g
   id="g30"
   transform="translate(0,10)">
</g>
<g
   id="g32"
   transform="translate(0,10)">
</g>
<g
   id="g34"
   style="display:inline"
   transform="translate(0,10)">
</g>
<g
   id="g36"
   style="display:inline"
   transform="translate(0,10)">
</g>
</svg>