<?xml version="1.0" encoding="UTF-8" standalone="no"?>
<svg
   xmlns:dc="http://purl.org/dc/elements/1.1/"
   xmlns:cc="http://creativecommons.org/ns#"
   xmlns:rdf="http://www.w3.org/1999/02/22-rdf-syntax-ns#"
   xmlns:svg="http://www.w3.org/2000/svg"
   xmlns="http://www.w3.org/2000/svg"
   xmlns:sodipodi="http://sodipodi.sourceforge.net/DTD/sodipodi-0.dtd"
   xmlns:inkscape="http://www.inkscape.org/namespaces/inkscape"
   width="22"
   height="22"
   id="svg3026"
   version="1.1"
   inkscape:version="0.92.4 (5da689c313, 2019-01-14)"
   sodipodi:docname="Next_Arrow.svg">
  <metadata
     id="metadata3038">
    <rdf:RDF>
      <cc:Work
         rdf:about="">
        <dc:format>image/svg+xml</dc:format>
        <dc:type
           rdf:resource="http://purl.org/dc/dcmitype/StillImage" />
        <dc:title></dc:title>
      </cc:Work>
    </rdf:RDF>
  </metadata>
  <defs
     id="defs3036">
    <linearGradient
       id="linearGradient4006">
      <stop
         style="stop-color:#252525;stop-opacity:1;"
         offset="0"
         id="stop4008" />
      <stop
         style="stop-color:#4a4a4a;stop-opacity:1;"
         offset="1"
         id="stop4010" />
    </linearGradient>
  </defs>
  <sodipodi:namedview
     pagecolor="#ffffff"
     bordercolor="#666666"
     borderopacity="1"
     objecttolerance="10"
     gridtolerance="10"
     guidetolerance="10"
     inkscape:pageopacity="0"
     inkscape:pageshadow="2"
     inkscape:window-width="1920"
     inkscape:window-height="1050"
     id="namedview3034"
     showgrid="true"
     inkscape:zoom="26.304372"
     inkscape:cx="2.9643877"
     inkscape:cy="6.8249439"
     inkscape:window-x="-6"
     inkscape:window-y="-9"
     inkscape:window-maximized="1"
     inkscape:current-layer="g3028"
     fit-margin-top="1"
     fit-margin-bottom="1">
    <inkscape:grid
       type="xygrid"
       id="grid3040" />
  </sodipodi:namedview>
  <g
     id="g3028"
     style="stroke:#d40000;stroke-width:2.23000002"
     transform="translate(0,2)">
    <path
       inkscape:connector-curvature="0"
       id="path4003"
       style="font-style:normal;font-variant:normal;font-weight:normal;font-stretch:normal;font-size:11.38508987px;line-height:125%;font-family:'Segoe UI Symbol';-inkscape-font-specification:'Segoe UI Symbol';text-align:start;letter-spacing:0px;word-spacing:0px;writing-mode:lr-tb;text-anchor:start;fill:#7e7e7e;fill-opacity:1;stroke:none"
       d="m 19.268133,9.008792 c -2e-5,0.7560365 -0.09966,1.484242 -0.298902,2.184616 -0.199287,0.700357 -0.477675,1.358232 -0.835165,1.973627 -0.357528,0.615373 -0.786831,1.175079 -1.287912,1.67912 -0.501116,0.504017 -1.057891,0.936251 -1.67033,1.296703 -0.612469,0.360426 -1.270344,0.640279 -1.973627,0.839561 -0.703309,0.199253 -1.432978,0.298886 -2.18901,0.298901 C 10.257132,17.281305 9.528928,17.18167 8.828571,16.982419 8.128196,16.783137 7.473252,16.503284 6.863737,16.142858 6.254206,15.782406 5.695964,15.350172 5.189011,14.846155 4.682046,14.342114 4.248347,13.782407 3.887912,13.167035 3.527468,12.55164 3.24615,11.893765 3.043956,11.193408 2.841755,10.493034 2.740656,9.7648285 2.74066,9.008792 2.740656,8.252743 2.84029,7.524538 3.039561,6.824177 3.238824,6.123807 3.518677,5.467398 3.879121,4.854946 4.239556,4.242492 4.67179,3.685715 5.175825,3.184616 5.679847,2.683518 6.239554,2.252749 6.854945,1.892309 7.470322,1.53187 8.128196,1.252017 8.828571,1.052748 c 0.700357,-0.199264 1.428561,-0.298899 2.184616,-0.2989 0.756032,1e-6 1.485701,0.09964 2.18901,0.2989 0.703283,0.199269 1.361158,0.477658 1.973627,0.835165 0.612439,0.357511 1.169214,0.786814 1.67033,1.287912 0.501081,0.501099 0.930384,1.05934 1.287912,1.674726 0.35749,0.615382 0.635878,1.273256 0.835165,1.973626 0.199247,0.700361 0.298882,1.428566 0.298902,2.184615 z M 16.498902,9.043964 V 9.008792 L 12.472528,4.797804 H 9.553846 l 3.068132,3.138462 H 5.949451 v 2.180219 h 6.672527 l -3.068132,3.138461 h 2.918682 z M 21,9 C 20.999979,8.09157 20.879829,7.215381 20.639561,6.371428 20.399246,5.52747 20.059321,4.734796 19.619781,3.993407 19.180201,3.252014 18.655658,2.576556 18.046154,1.967032 17.436613,1.357511 16.761155,0.832968 16.019782,0.393407 c -0.741409,-0.43955897 -1.535547,-0.77948397 -2.382419,-1.01978097 -0.846901,-0.240288 -1.724555,-0.360435 -2.632967,-0.360438 -0.908436,3e-6 -1.78609,0.120155 -2.632967,0.360439 -0.846895,0.240297 -1.641033,0.577292 -2.382418,1.01098997 C 5.247613,0.818318 4.570691,1.339929 3.958242,1.949452 3.345784,2.558976 2.819777,3.234434 2.38022,3.975826 1.940657,4.717216 1.60073,5.511354 1.36044,6.358242 1.120145,7.205125 0.999998,8.08571 1,9.000001 c -2e-6,0.9084175 0.120145,1.786073 0.36044,2.632967 0.24029,0.846877 0.580217,1.641015 1.01978,2.382417 0.439557,0.74138 0.965564,1.418303 1.578022,2.03077 0.612449,0.61244 1.289371,1.138447 2.030769,1.578022 0.741385,0.439545 1.535523,0.780937 2.382418,1.024176 0.846877,0.243207 1.724531,0.364819 2.632967,0.364835 0.908412,-1.6e-5 1.786066,-0.120163 2.632967,-0.36044 0.846872,-0.240308 1.64101,-0.57877 2.382419,-1.015384 0.741373,-0.436645 1.416831,-0.961186 2.026372,-1.573627 0.609504,-0.612467 1.134047,-1.28939 1.573627,-2.03077 0.43954,-0.741402 0.779465,-1.537005 1.01978,-2.386812 C 20.879832,10.796331 20.999979,9.9142795 21,9.000001 Z" />
  </g>
</svg>
