<?xml version="1.0" encoding="UTF-8" standalone="no"?>
<!-- Generator: Adobe Illustrator 18.0.0, SVG Export Plug-In . SVG Version: 6.00 Build 0)  -->

<svg
   xmlns:dc="http://purl.org/dc/elements/1.1/"
   xmlns:cc="http://creativecommons.org/ns#"
   xmlns:rdf="http://www.w3.org/1999/02/22-rdf-syntax-ns#"
   xmlns:svg="http://www.w3.org/2000/svg"
   xmlns="http://www.w3.org/2000/svg"
   xmlns:sodipodi="http://sodipodi.sourceforge.net/DTD/sodipodi-0.dtd"
   xmlns:inkscape="http://www.inkscape.org/namespaces/inkscape"
   version="1.1"
   id="Capa_1"
   x="0px"
   y="0px"
   viewBox="0 0 340 340"
   xml:space="preserve"
   sodipodi:docname="previous-arrow_grey.svg"
   width="340"
   height="340"
   inkscape:version="0.92.4 (5da689c313, 2019-01-14)"><metadata
   id="metadata43"><rdf:RDF><cc:Work
       rdf:about=""><dc:format>image/svg+xml</dc:format><dc:type
         rdf:resource="http://purl.org/dc/dcmitype/StillImage" /><dc:title></dc:title></cc:Work></rdf:RDF></metadata><defs
   id="defs41" /><sodipodi:namedview
   pagecolor="#ffffff"
   bordercolor="#666666"
   borderopacity="1"
   objecttolerance="10"
   gridtolerance="10"
   guidetolerance="10"
   inkscape:pageopacity="0"
   inkscape:pageshadow="2"
   inkscape:window-width="1536"
   inkscape:window-height="863"
   id="namedview39"
   showgrid="false"
   inkscape:zoom="0.71515152"
   inkscape:cx="-4.1949153"
   inkscape:cy="165"
   inkscape:window-x="0"
   inkscape:window-y="0"
   inkscape:window-maximized="0"
   inkscape:current-layer="Capa_1" />
<g
   id="g6"
   transform="translate(4.1949153,5.8050847)"
   style="fill:#808080">
	<path
   d="M 165,0 C 74.019,0 0,74.019 0,164.999 0,255.98 74.019,330 165,330 255.981,330 330,255.98 330,164.999 330,74.019 255.981,0 165,0 Z m 0,300 C 90.56,300 30,239.439 30,164.999 30,90.561 90.56,30 165,30 239.44,30 300,90.561 300,164.999 300,239.439 239.439,300 165,300 Z"
   id="path2"
   inkscape:connector-curvature="0"
   style="fill:#808080" />
	<path
   d="m 234.999,149.992 -103.784,0.006 34.392,-34.393 c 5.858,-5.857 5.858,-15.355 0,-21.213 -5.857,-5.857 -15.355,-5.857 -21.213,0 l -60,60.001 C 81.58,157.207 80,161.021 80,165 c 0,3.979 1.581,7.794 4.394,10.606 l 60,59.999 c 2.929,2.929 6.767,4.393 10.606,4.393 3.839,0 7.678,-1.465 10.606,-4.393 5.858,-5.857 5.858,-15.355 0,-21.213 l -34.395,-34.395 103.79,-0.006 c 8.284,0 14.999,-6.717 14.999,-15.001 -0.001,-8.283 -6.717,-14.998 -15.001,-14.998 z"
   id="path4"
   inkscape:connector-curvature="0"
   style="fill:#808080" />
</g>
<g
   id="g8"
   transform="translate(0,10)">
</g>
<g
   id="g10"
   transform="translate(0,10)">
</g>
<g
   id="g12"
   transform="translate(0,10)">
</g>
<g
   id="g14"
   transform="translate(0,10)">
</g>
<g
   id="g16"
   transform="translate(0,10)">
</g>
<g
   id="g18"
   transform="translate(0,10)">
</g>
<g
   id="g20"
   transform="translate(0,10)">
</g>
<g
   id="g22"
   transform="translate(0,10)">
</g>
<g
   id="g24"
   transform="translate(0,10)">
</g>
<g
   id="g26"
   transform="translate(0,10)">
</g>
<g
   id="g28"
   transform="translate(0,10)">
</g>
<g
   id="g30"
   transform="translate(0,10)">
</g>
<g
   id="g32"
   transform="translate(0,10)">
</g>
<g
   id="g34"
   transform="translate(0,10)">
</g>
<g
   id="g36"
   transform="translate(0,10)">
</g>
</svg>