<?xml version="1.0" encoding="UTF-8" standalone="no"?>
<svg
   xmlns:dc="http://purl.org/dc/elements/1.1/"
   xmlns:cc="http://creativecommons.org/ns#"
   xmlns:rdf="http://www.w3.org/1999/02/22-rdf-syntax-ns#"
   xmlns:svg="http://www.w3.org/2000/svg"
   xmlns="http://www.w3.org/2000/svg"
   xmlns:sodipodi="http://sodipodi.sourceforge.net/DTD/sodipodi-0.dtd"
   xmlns:inkscape="http://www.inkscape.org/namespaces/inkscape"
   stroke-miterlimit="10"
   font-weight="normal"
   font-style="normal"
   font-size="12"
   version="1.1"
   id="svg9"
   sodipodi:docname="white_hard_shell_floppy_disk.svg"
   inkscape:version="0.92.4 (5da689c313, 2019-01-14)"
   width="100"
   height="100"
   style="font-style:normal;font-weight:normal;font-size:12px;font-family:Dialog;color-interpolation:auto;fill:#000000;fill-opacity:1;stroke:#000000;stroke-width:1;stroke-linecap:square;stroke-linejoin:miter;stroke-miterlimit:10;stroke-dasharray:none;stroke-dashoffset:0;stroke-opacity:1;color-rendering:auto;image-rendering:auto;shape-rendering:auto;text-rendering:auto">
  <metadata
     id="metadata13">
    <rdf:RDF>
      <cc:Work
         rdf:about="">
        <dc:format>image/svg+xml</dc:format>
        <dc:type
           rdf:resource="http://purl.org/dc/dcmitype/StillImage" />
        <dc:title></dc:title>
      </cc:Work>
    </rdf:RDF>
  </metadata>
  <sodipodi:namedview
     pagecolor="#ffffff"
     bordercolor="#666666"
     borderopacity="1"
     objecttolerance="10"
     gridtolerance="10"
     guidetolerance="10"
     inkscape:pageopacity="0"
     inkscape:pageshadow="2"
     inkscape:window-width="1056"
     inkscape:window-height="892"
     id="namedview11"
     showgrid="false"
     inkscape:zoom="2.36"
     inkscape:cx="-7.8389831"
     inkscape:cy="-0.84745763"
     inkscape:window-x="133"
     inkscape:window-y="40"
     inkscape:window-maximized="0"
     inkscape:current-layer="svg9"
     units="px" />
  <!--Unicode Character 'WHITE HARD SHELL FLOPPY DISK' (U+1F5AB)-->
  <defs
     id="genericDefs" />
  <g
     id="g7"
     transform="matrix(0.38107599,0,0,0.44215402,1.4109022,-64.995417)"
     style="opacity:1;fill:#000000;fill-opacity:1;stroke:#000000;stroke-width:0.99882931;stroke-miterlimit:10;stroke-dasharray:none;stroke-opacity:1">
    <g
       id="g5"
       style="fill:#000000;fill-opacity:1;stroke:#000000;stroke-width:0.99882931;stroke-miterlimit:10;stroke-dasharray:none;stroke-opacity:1">
      <path
         d="m 232.3125,351.1406 q 0,5.7656 -4.0156,9.8438 -4,4.0781 -9.7657,4.0781 H 51.8906 L 24.1875,337.3594 V 170.7188 q 0,-5.7657 4.0781,-9.7657 4.0782,-4.0156 9.8438,-4.0156 h 180.4218 q 5.7657,0 9.7657,4.0156 4.0156,4 4.0156,9.7657 z m -41.625,-104.0625 v -83.25 H 65.8125 v 83.25 q 0,6.8907 6.8906,6.8907 l 111.0938,0.1406 q 6.8906,0 6.8906,-7.0313 z m 34.7344,104.2031 V 170.7188 q 0,-6.8907 -6.8907,-6.8907 h -20.8124 v 83.25 q 0,5.7657 -4.0782,9.8438 Q 189.5625,261 183.7969,261 H 72.7031 q -5.7656,0 -9.7812,-4.0781 -4,-4.0781 -4,-9.8438 v -83.25 H 38.1094 q -7.0313,0 -7.0313,6.8907 v 163.8281 l 23.625,23.625 h 25.0313 v -62.4375 q 0,-7.0313 6.8906,-7.0313 h 83.25 q 7.0312,0 7.0312,7.0313 v 62.4375 h 41.625 q 6.8907,0 6.8907,-6.8907 z m -104.0625,6.8907 V 295.7344 H 86.625 v 62.4375 z"
         id="path3"
         inkscape:connector-curvature="0"
         style="fill:#000000;fill-opacity:1;stroke:#000000;stroke-width:0.99882931;stroke-miterlimit:10;stroke-dasharray:none;stroke-opacity:1" />
    </g>
  </g>
</svg>
